<svg id="Layer_1" xmlns="http://www.w3.org/2000/svg" viewBox="0 0 167 21"><style>.st0{fill:#1f1f1f}.st1{fill:#2ea839}</style><path class="st0" d="M14.9 5.3c.4 0 .5.2.5.5l.1.8c.7-.6 2-1.5 4.1-1.5 1.7 0 2.7.7 3.3 1.7.6-.5 1.9-1.7 4.3-1.7s3.6 1.4 3.6 3.3v9.1c0 .4-.2.5-.5.5h-1.4c-.4 0-.5-.2-.5-.5V8.9c0-1-.5-1.7-1.9-1.7-1.7 0-2.9.9-3.3 1.3v8.8c0 .4-.1.5-.5.5h-1.5c-.3 0-.5-.2-.5-.5V8.9c0-1-.5-1.7-1.9-1.7-1.6 0-2.8.9-3.3 1.3v8.8c0 .4-.1.5-.5.5h-1.5c-.4 0-.5-.2-.5-.5V5.8c0-.3.1-.5.5-.5h1.4zm19 3.2c0-2 1.3-3.4 4.8-3.4 3.6 0 4.8 1.4 4.8 3.4v8.9c0 .4-.1.5-.5.5h-1.3c-.4 0-.5-.2-.5-.5l-.1-.7c-.7.6-2.1 1.5-4 1.5-2.4 0-3.6-1.4-3.6-3.1v-1.2c0-1.7 1.2-3.1 3.5-3.1h4v-2c0-1-.5-1.7-2.5-1.7-1.9 0-2.5.6-2.5 1.7V9c0 .4-.1.5-.5.5h-1.3c-.3 0-.5-.2-.5-.5l.2-.5zm7.2 6.3v-2.2h-3.5c-1.3 0-1.7.6-1.7 1.6v.5c0 1 .6 1.4 1.8 1.4 1.6 0 2.8-.8 3.4-1.3zm12.6-9.2v1.2c0 .4-.2.5-.5.5-1.9.1-3.4 1.1-3.9 1.6v8.5c0 .4-.1.5-.5.5h-1.5c-.4 0-.5-.2-.5-.5V5.8c0-.3.1-.5.5-.5h1.4c.4 0 .5.1.5.5l.1 1.1c.7-.7 2.1-1.8 4-1.8.3 0 .4.2.4.5zm8.5 11.1v1c0 .4-.2.5-.5.5h-.8c-1.8 0-2.9-.3-3.6-.9-.7-.6-1-1.5-1-2.9v-11c0-.4.1-.5.5-.5h1.5c.3 0 .5.2.5.5v1.7h2.6c.4 0 .5.1.5.5v1c0 .4-.2.5-.5.5h-2.5v7.4c0 1.1.8 1.6 2.5 1.6h.5c.1 0 .3.2.3.6zm-52.1-3.9v1.8c0 1.1-.5 3.5-5 3.5-4.6 0-5.1-2.5-5.1-3.5v-.3c0-.4.2-.7.6-.7h1.3c.3 0 .6.1.6.7 0 .4 0 1.6 2.5 1.6s2.5-1.2 2.5-1.6v-1c0-.8-.7-1.2-1.6-1.5l-3.6-1.4C1.3 10 .2 9 .2 7.5V6.3C.2 5 .8 2.8 5 2.8c1.7 0 3 .4 3.8 1 .7.6 1.1 1.5 1.1 2.5v.2c0 .4-.2.6-.6.6H8.1c-.6 0-.6-.5-.6-.6 0-.6-.3-1.5-2.4-1.5s-2.4.9-2.4 1.6V7c0 .8.4 1 .9 1.2l3.9 1.5c1.7.7 2.6 1.7 2.6 3.1z"/><path class="st1" d="M164.8 11.6l-4-1.3c-.6-.2-1.4-.7-1.4-1.6v-.8c0-1.1.9-1.8 3.1-1.8s3.1.7 3.1 1.8v.2c0 .2.1.3.3.3h.7c.2 0 .3-.1.3-.3v-.2c0-1.5-1.2-2.8-4.3-2.8-3.2 0-4.3 1.3-4.3 2.8v1c0 1.3 1.1 2.2 2 2.4l4 1.3c.9.3 1.6.7 1.6 1.6v1.2c0 1.1-1.1 1.8-3.3 1.8-2.2 0-3.3-.7-3.3-1.8v-.1c0-.2-.1-.3-.3-.3h-.7c-.2 0-.3.1-.3.3v.2c0 1.5 1.3 2.8 4.5 2.8s4.6-1.3 4.6-2.8V14c-.1-1.3-1.1-2.1-2.3-2.4zm-55.4-6.5c-1.9 0-3.6 1.2-4.4 1.9V5.6c0-.2-.1-.3-.3-.3h-.7c-.2 0-.3.1-.3.3v12.1c0 .2.1.3.3.3h.7c.2 0 .3-.1.3-.3V8.1c.6-.5 2.4-1.7 4.3-1.8.2 0 .3-.1.3-.3v-.6c.1-.2 0-.3-.2-.3zm11.7.2h-.7c-.2 0-.3.1-.3.3v9.8c-.6.5-1.9 1.5-4 1.5-1.8 0-2.5-.9-2.5-2.1V5.6c0-.2-.1-.3-.3-.3h-.7c-.2 0-.3.1-.3.3v9.5c0 1.8 1.1 3.1 3.5 3.1 2.2 0 3.6-1 4.3-1.5l.1 1c0 .2.1.3.3.3h.7c.2 0 .3-.1.3-.3v-12c-.2-.3-.2-.4-.4-.4zm5.3 1h-.7c-.2 0-.3.1-.3.3v11.1c0 .2.1.3.3.3h.7c.2 0 .3-.1.3-.3V6.6c0-.2-.1-.3-.3-.3zm0-3.4h-.7c-.2 0-.3.1-.3.3v.9c0 .2.1.3.3.3h.7c.2 0 .3-.1.3-.3v-.9c0-.2-.1-.3-.3-.3zm9.4 14.2h-.4c-2.5 0-3.2-.9-3.2-2.1V6.9h3c.2 0 .3-.1.3-.3v-.5c0-.2-.1-.3-.3-.3h-3V3.2c0-.2-.1-.3-.3-.3h-.7c-.2 0-.3.1-.3.3v11.9c0 1.9.9 3.1 4.3 3.1h.6c.2 0 .3-.1.3-.3v-.5c0-.2-.1-.3-.3-.3zm20.5-12c-2 0-3.7 1.2-4.4 1.9l-.1-1.4c0-.2-.1-.3-.3-.3h-.7c-.2 0-.3.1-.3.3v12.3c0 .2.1.3.3.3h.7c.2 0 .3-.1.3-.3V8.2c.6-.6 2.4-1.8 4.4-1.8.2 0 .3-.1.3-.3v-.7c.2-.2 0-.3-.2-.3zM92.6 8.4V15c0 1.3.7 2.1 3.2 2.1S99 16.3 99 15v-.2c0-.2.1-.3.3-.3h.7c.2 0 .3.1.3.3v.2c0 1.9-1.1 3.2-4.5 3.2s-4.5-1.3-4.5-3.2V8.3c0-1.9 1.1-3.2 4.5-3.2s4.5 1.3 4.5 3.2v.3c0 .2-.1.3-.3.3h-.7c-.2 0-.3-.1-.3-.3v-.2c0-1.3-.7-2.1-3.2-2.1-2.5-.1-3.2.8-3.2 2.1zm-4.4 3.4c.2 0 .3-.1.3-.3V8.3c0-1.9-1.1-3.2-4.5-3.2-3.5 0-4.6 1.3-4.6 3.2V15c0 1.9 1.1 3.2 4.6 3.2 3.5 0 4.6-1.3 4.6-3.2v-.3c0-.2-.1-.3-.3-.3h-.7c-.2 0-.3.1-.3.3v.3c0 1.3-.7 2.1-3.3 2.1-2.6 0-3.3-.9-3.3-2.1v-3.2h7.5zm-7.5-3.5c0-1.2.7-2.1 3.3-2.1 2.5 0 3.3.9 3.3 2.1v2.4h-6.5V8.3zm65.8 3.5c.2 0 .3-.1.3-.3V8.3c0-1.9-1.1-3.2-4.5-3.2-3.5 0-4.6 1.3-4.6 3.2V15c0 1.9 1.1 3.2 4.6 3.2 3.4 0 4.5-1.2 4.6-3 0-.2-.1-.3-.3-.3h-.7c-.2 0-.3.1-.3.2-.1 1.1-.8 1.9-3.3 1.9-2.6 0-3.3-.9-3.3-2.1v-3.2c0 .1 7.5.1 7.5.1zM139 8.3c0-1.2.7-2.1 3.3-2.1 2.5 0 3.3.9 3.3 2.1v2.4H139V8.3zM65.8 2.9zm10.8 14.6l-2.4-6c.1 0 .2-.1.3-.1 1.2-.5 1.9-1.4 1.9-2.8V6.1c0-2.1-1.6-3.2-4.7-3.2h-5.8c-.1 0-.2.1-.2.3v14.4c0 .2.1.3.3.3h.7c.3 0 .3-.2.3-.4v-5.8h6l2.3 5.9c.1.1.1.3.4.3h.7c.1 0 .2 0 .3-.1-.1-.1-.1-.2-.1-.3zm-4.9-6.9H67V4.1h4.8c3 0 3.3 1.2 3.3 2.2v2.2c0 .9-.4 2.1-3.4 2.1zm2.5.9z"/></svg>